<svg width="60" height="60" viewBox="0 0 60 60" fill="none" xmlns="http://www.w3.org/2000/svg">
<g clip-path="url(#clip0_23593_65338)">
<rect width="60" height="60" rx="12" fill="black"/>
<path d="M29.195 37.4124C29.195 38.7061 28.1463 39.7548 26.8526 39.7548C25.5589 39.7548 24.5103 38.7061 24.5103 37.4124C24.5103 36.1187 25.5589 35.0701 26.8526 35.0701C28.1463 35.0701 29.195 36.1187 29.195 37.4124ZM27.4347 37.4124C27.4347 37.0912 27.1744 36.8304 26.8526 36.8304C26.5308 36.8304 26.2706 37.0907 26.2706 37.4124C26.2706 37.7342 26.5308 37.9945 26.8526 37.9945C27.1744 37.9945 27.4347 37.7342 27.4347 37.4124ZM40.5916 37.4124C40.5916 38.7061 39.5429 39.7548 38.2493 39.7548C36.9556 39.7548 35.9069 38.7061 35.9069 37.4124C35.9069 36.1187 36.9556 35.0701 38.2493 35.0701C39.5429 35.0701 40.5916 36.1187 40.5916 37.4124ZM38.8313 37.4124C38.8313 37.0912 38.571 36.8304 38.2493 36.8304C37.9275 36.8304 37.6672 37.0907 37.6672 37.4124C37.6672 37.7342 37.9275 37.9945 38.2493 37.9945C38.571 37.9945 38.8313 37.7342 38.8313 37.4124Z" fill="url(#paint0_linear_23593_65338)"/>
<path d="M20.4457 50.6406C20.5089 50.542 20.5633 50.4555 20.6199 50.3694C20.7964 50.1015 20.9728 49.8342 21.1497 49.5669C21.1623 49.5478 21.1753 49.5287 21.1884 49.5102C21.3251 49.3197 21.379 49.3006 21.5919 49.3768C21.7966 49.4503 21.9991 49.5304 22.2049 49.6001C22.3351 49.6436 22.4679 49.6817 22.6024 49.7079C23.2019 49.8249 23.7094 49.6458 24.1324 49.2146C24.3317 49.0115 24.4319 48.7643 24.4504 48.4583C24.403 48.4763 24.3704 48.4801 24.3502 48.4975C23.9876 48.8171 23.558 48.9489 23.0837 48.9412C22.4298 48.9304 21.8478 48.6979 21.3376 48.3053C20.7975 47.8893 20.4027 47.3546 20.2421 46.6822C19.9568 45.4898 20.2176 44.4378 21.0855 43.5487C21.5902 43.0319 22.2077 42.769 22.915 42.6965C23.3342 42.6535 23.7366 42.727 24.1183 42.9067C24.2408 42.9644 24.36 43.0292 24.4967 43.0989C24.5185 43.0467 24.5364 43.008 24.5506 42.9682C24.5958 42.8452 24.6894 42.7886 24.8147 42.7864C25.2274 42.7809 25.6396 42.7711 26.0523 42.7788C26.3076 42.7837 26.4236 42.9111 26.4389 43.1637C26.4438 43.2438 26.4416 43.3243 26.4416 43.4044C26.4416 44.9523 26.4416 46.5009 26.4394 48.0488C26.4389 48.3695 26.4209 48.6881 26.3681 49.0071C26.2712 49.5919 26.0234 50.1026 25.6232 50.5273C24.776 51.4252 23.7279 51.7688 22.5066 51.5994C21.8592 51.5096 21.2701 51.2711 20.7152 50.9352C20.5764 50.8513 20.5775 50.8497 20.4468 50.6406H20.4457ZM23.3048 47.0034C23.9794 47.0007 24.5185 46.4851 24.5098 45.8508C24.5005 45.193 23.919 44.6142 23.2787 44.6186C22.5088 44.6235 22.132 45.2916 22.1331 45.7909C22.1342 46.6152 22.7434 47.0067 23.3054 47.0034H23.3048Z" fill="white"/>
<path d="M32.4158 43.2335C32.7866 42.8921 33.2244 42.7609 33.6834 42.6993C34.2502 42.6236 34.7827 42.7658 35.2668 43.05C35.9332 43.4415 36.4216 44.005 36.6383 44.7526C36.9939 45.9798 36.7652 47.089 35.8684 48.0298C35.5151 48.4001 35.1078 48.6881 34.6101 48.8411C33.9006 49.0595 33.2293 49.0007 32.5977 48.5972C32.5035 48.5368 32.4082 48.4774 32.2912 48.4034C32.2824 48.5291 32.2808 48.6282 32.2683 48.7257C32.2514 48.8553 32.1763 48.9282 32.0456 48.95C32.0118 48.9555 31.977 48.9566 31.9427 48.9566C31.5409 48.9566 31.1396 48.9609 30.7377 48.9555C30.4715 48.9516 30.374 48.8493 30.3648 48.5738C30.3588 48.3903 30.3648 48.2068 30.3648 48.0233C30.3631 45.8661 30.361 43.7083 30.3599 41.551C30.3599 41.1263 30.362 40.7016 30.3642 40.2775C30.3669 39.8598 30.4764 39.7488 30.894 39.7455C31.2267 39.7433 31.5594 39.7411 31.892 39.7466C32.1937 39.7509 32.3402 39.8838 32.3576 40.1794C32.3723 40.4305 32.369 40.6831 32.3696 40.9352C32.3706 41.6697 32.369 42.4037 32.3696 43.1382C32.3696 43.1572 32.387 43.1758 32.4158 43.2335ZM34.8138 45.8666C34.8486 45.2443 34.2889 44.6088 33.5947 44.6018C33.0137 44.5958 32.3892 45.1108 32.3679 45.7931C32.3456 46.5227 32.9837 47.0334 33.5707 47.0313C34.2295 47.0291 34.8089 46.4944 34.8138 45.8666Z" fill="white"/>
<path d="M14.4187 48.4273C14.2303 48.5465 14.0528 48.6734 13.8627 48.7763C13.5094 48.9674 13.1255 49.0109 12.7297 48.9745C11.5258 48.8628 10.2299 47.8877 10.0301 46.2662C9.88962 45.1255 10.249 44.1574 11.1082 43.4C11.6494 42.9231 12.3028 42.6824 13.0324 42.6857C13.3574 42.6867 13.6678 42.7657 13.9586 42.9138C14.05 42.9606 14.1377 43.0151 14.2237 43.0641C14.3234 43.0352 14.3 42.9519 14.301 42.8915C14.3103 42.4788 14.3157 42.066 14.3185 41.6533C14.3212 41.2057 14.3201 40.7587 14.3212 40.3112C14.3212 40.2311 14.319 40.1494 14.3326 40.071C14.3647 39.8859 14.4965 39.7487 14.6789 39.7433C15.0916 39.7307 15.5049 39.7247 15.9171 39.7367C16.161 39.7438 16.3053 39.9115 16.3129 40.1669C16.3222 40.4761 16.3189 40.7859 16.3189 41.0958V48.3222C16.3189 48.4256 16.3222 48.5291 16.3173 48.632C16.308 48.8209 16.2187 48.9282 16.0407 48.9739C16.0183 48.9794 15.996 48.987 15.9737 48.987C15.6182 48.9897 15.2626 49.0033 14.9081 48.9892C14.6969 48.981 14.5422 48.8656 14.4992 48.6396C14.4905 48.5944 14.4758 48.5568 14.46 48.5138C14.4491 48.4839 14.4328 48.4507 14.4187 48.4278V48.4273ZM13.1848 44.6099C12.6153 44.5826 12.0098 45.0509 11.9962 45.7783C11.9832 46.4726 12.5037 47.0257 13.1418 47.0285C13.8557 47.0312 14.3843 46.4687 14.3865 45.8644C14.3892 45.2393 13.8867 44.6148 13.1843 44.6099H13.1848Z" fill="white"/>
<path d="M47.4661 46.3437C47.5064 46.2664 47.5374 46.2201 47.556 46.17C47.9061 45.2362 48.2545 44.3018 48.6046 43.3681C48.6449 43.2608 48.6852 43.1524 48.7397 43.0523C48.8399 42.8682 48.9869 42.7675 49.2123 42.7724C49.6364 42.7816 50.0611 42.7691 50.4853 42.7735C50.7537 42.7762 50.9013 42.9842 50.8087 43.2417C50.7047 43.533 50.5751 43.8151 50.463 44.1031C50.1336 44.9465 49.8096 45.7916 49.4796 46.6344C49.1203 47.5519 48.7571 48.4682 48.3928 49.3841C48.2224 49.8126 48.009 50.216 47.6937 50.5602C47.3387 50.9484 46.9189 51.2446 46.4245 51.4199C45.9764 51.5789 45.5071 51.6067 45.035 51.5598C44.864 51.543 44.6931 51.5223 44.5237 51.4912C44.4235 51.4733 44.3223 51.4422 44.2297 51.3998C44.0457 51.3154 44.0103 51.231 44.0745 51.0437C44.2047 50.6642 44.3386 50.2857 44.4725 49.9079C44.4834 49.8763 44.5074 49.8496 44.5303 49.8126C44.6484 49.7625 44.7747 49.8017 44.8978 49.8044C45.1401 49.8088 45.378 49.7859 45.6078 49.7064C45.9007 49.6051 46.1283 49.4227 46.2889 49.1565C46.3902 48.9882 46.4158 48.8167 46.3347 48.6316C46.2476 48.4323 46.1697 48.2287 46.082 48.0294C45.5561 46.8337 45.0295 45.638 44.5744 44.4118C44.4589 44.1004 44.3195 43.7977 44.197 43.4889C44.1595 43.3942 44.1279 43.2929 44.1175 43.1922C44.0958 42.9711 44.2237 42.8154 44.442 42.7822C44.5096 42.7718 44.5793 42.7757 44.6484 42.7757C44.9697 42.7757 45.2909 42.786 45.6121 42.7751C45.9062 42.7648 46.0869 42.9085 46.2029 43.159C46.2508 43.263 46.2922 43.3702 46.3336 43.477C46.6815 44.3743 47.0289 45.2721 47.3774 46.1689C47.397 46.219 47.4258 46.2653 47.4667 46.3442L47.4661 46.3437Z" fill="white"/>
<path d="M41.5951 48.4426C41.5635 48.4382 41.5472 48.4317 41.5434 48.436C40.9368 49.0943 39.7771 49.1591 38.956 48.7219C38.3102 48.3778 37.9188 47.8355 37.7075 47.15C37.6193 46.8641 37.5736 46.5717 37.5774 46.269C37.5888 45.3058 37.5893 44.3421 37.5948 43.3783C37.5948 43.3212 37.591 43.2629 37.5991 43.2063C37.6291 42.9966 37.7903 42.8327 38.0004 42.7952C38.0456 42.787 38.0908 42.7767 38.1366 42.7767C38.4921 42.775 38.8477 42.7739 39.2032 42.7761C39.4727 42.7778 39.6502 42.9171 39.6421 43.2286C39.6366 43.4235 39.6388 43.6184 39.6393 43.8134C39.6404 44.513 39.6404 45.2127 39.6453 45.9124C39.6464 46.0605 39.6535 46.2118 39.6823 46.3567C39.7749 46.82 40.1648 47.107 40.6308 47.0678C41.1693 47.022 41.5434 46.6414 41.5581 46.0991C41.5706 45.6178 41.5619 45.1354 41.5619 44.6541C41.5619 44.2065 41.5586 43.7595 41.563 43.3119C41.5657 43.0015 41.7133 42.8219 42.0073 42.8104C42.4309 42.7946 42.8562 42.8012 43.2803 42.8077C43.4251 42.8099 43.5319 42.9177 43.558 43.0669C43.5716 43.1453 43.57 43.227 43.5705 43.307V48.4693C43.5705 48.5264 43.5722 48.5841 43.5667 48.6413C43.5526 48.7954 43.4622 48.8907 43.3228 48.9424C43.2809 48.9582 43.2329 48.9642 43.1877 48.9658C42.8213 48.9784 42.4549 48.9892 42.0884 48.999C42.0427 49.0001 41.9959 48.999 41.9518 48.9892C41.8211 48.9593 41.7198 48.8912 41.6806 48.7546C41.6501 48.6479 41.6223 48.5406 41.5957 48.4426H41.5951Z" fill="white"/>
<path d="M27.3633 43.522C27.3633 43.4191 27.3595 43.3145 27.3753 43.2132C27.4036 43.0287 27.5392 42.8947 27.7227 42.8909C28.1463 42.8822 28.5704 42.8865 28.9946 42.8893C29.1198 42.8904 29.2157 42.9557 29.2674 43.0668C29.3104 43.1588 29.3458 43.2573 29.3632 43.357C29.3806 43.4572 29.3752 43.5623 29.3752 43.6657C29.3757 45.224 29.3752 46.7829 29.3752 48.3412V48.4441C29.3676 48.8182 29.2227 48.9668 28.8574 48.9712C28.6396 48.9739 28.4218 48.9706 28.204 48.9712C28.0782 48.9712 27.9623 48.9804 27.8267 48.9804C27.7123 48.9804 27.6252 48.9641 27.5321 48.9156C27.4336 48.8639 27.3726 48.7871 27.3606 48.675C27.3546 48.6183 27.3459 48.5612 27.3459 48.5046C27.3448 47.6568 27.3454 46.8096 27.3454 45.9618C27.3454 45.9438 27.3622 44.3343 27.3633 43.5209V43.522Z" fill="white"/>
<path d="M19.2902 45.9237V48.3995C19.2902 48.4567 19.2859 48.5138 19.2799 48.571C19.2532 48.8133 19.122 48.9598 18.8868 48.9663C18.4975 48.9777 18.1071 48.9788 17.7177 48.9652C17.4684 48.9565 17.3317 48.7948 17.3274 48.5356C17.3208 48.1686 17.3203 47.8022 17.3197 47.4352C17.3176 46.1862 17.3165 44.9371 17.3159 43.6875C17.3159 43.5503 17.3186 43.4125 17.3279 43.2753C17.3453 43.0183 17.4618 42.9018 17.7188 42.8958C18.0967 42.8877 18.4762 42.9024 18.853 42.8817C19.0937 42.8686 19.2886 43.0831 19.2864 43.3107C19.2815 43.7806 19.2995 44.2505 19.2978 44.7204C19.2968 45.1217 19.2897 45.9123 19.2897 45.9237H19.2902Z" fill="white"/>
<path d="M29.4001 41.2843C29.4143 41.8963 28.9243 42.3096 28.352 42.3183C27.7944 42.3265 27.3284 41.8495 27.3365 41.286C27.3458 40.6598 27.8728 40.2754 28.3335 40.271C28.9177 40.2656 29.4284 40.7349 29.3996 41.2843H29.4001Z" fill="white"/>
<path d="M18.2671 42.2931C17.6943 42.2904 17.2837 41.8875 17.2832 41.3272C17.2832 40.7446 17.7302 40.29 18.2981 40.296C18.8628 40.3019 19.3544 40.7871 19.3152 41.3365C19.2722 41.9425 18.841 42.3046 18.2671 42.2926V42.2931Z" fill="#D2F801"/>
<path d="M43.8711 20.1898C43.8483 20.3945 43.8096 20.5987 43.7579 20.798C43.5374 21.6518 43.3081 22.5033 43.0844 23.3565C42.8317 24.3214 42.584 25.2873 42.3286 26.251C42.1996 26.7383 42.0526 27.2213 41.9246 27.7086C41.66 28.7165 41.4046 29.727 41.1405 30.7349C41.0447 31.1008 40.932 31.4623 40.8302 31.8266C40.7235 32.2088 40.4632 32.4266 40.0864 32.5061C39.9307 32.5387 39.7684 32.5507 39.6089 32.5507C36.9812 32.5534 34.3541 32.554 31.7264 32.5534C29.7989 32.5529 27.8714 32.5502 25.944 32.5458C25.7959 32.5458 25.6456 32.5371 25.4997 32.5132C25.1583 32.4571 24.9122 32.2665 24.7722 31.9485C24.6895 31.7596 24.6083 31.5696 24.5381 31.3757C24.0818 30.1147 23.6293 28.8526 23.1736 27.5916C23.0838 27.3438 22.9803 27.1015 22.8888 26.8543C22.5072 25.8225 22.1287 24.7891 21.7465 23.7573C21.44 22.9302 21.1694 22.0901 20.8334 21.2733C20.6418 20.8073 20.4877 20.3259 20.3123 19.8533C20.1898 19.5217 20.0602 19.1929 19.9307 18.8547C19.813 18.8493 19.7112 18.84 19.6094 18.84C18.4507 18.8428 17.2921 18.8487 16.1329 18.8487C15.9973 18.8487 15.859 18.8259 15.7261 18.797C15.5775 18.7649 15.4506 18.6838 15.3521 18.5662C15.0973 18.2618 15.0161 17.9231 15.1501 17.5404C15.2818 17.163 15.5301 16.9191 15.9314 16.8516C16.055 16.8309 16.1813 16.8167 16.3066 16.8162C17.7522 16.814 19.1978 16.814 20.6439 16.8162C20.7583 16.8162 20.8721 16.8358 20.9864 16.838C21.287 16.8445 21.4765 17.0166 21.6011 17.2654C21.6932 17.4494 21.7683 17.6433 21.838 17.8371C22.0776 18.5063 22.3073 19.1787 22.5491 19.8468C22.7282 20.3423 22.9242 20.8318 23.1061 21.3267C23.4731 22.3275 23.8357 23.3299 24.2005 24.3317C24.2593 24.4929 24.323 24.653 24.3818 24.8141C24.6258 25.4811 24.8691 26.1481 25.112 26.8151C25.4098 27.6329 25.7066 28.4518 26.0049 29.2697C26.1225 29.5925 26.2407 29.9154 26.361 30.2372C26.3844 30.2998 26.4198 30.3575 26.446 30.4098C26.8369 30.4653 37.2709 30.4969 38.7791 30.4485C38.8461 30.4463 38.9125 30.4321 38.9855 30.4223C39.0203 30.3156 39.0584 30.2203 39.0829 30.1223C39.8223 27.1767 40.6854 24.2631 41.4052 21.312C41.4155 21.2684 41.4122 21.2216 41.415 21.1732C41.3072 21.0986 41.189 21.1307 41.0801 21.1301C39.9443 21.1285 38.8085 21.1323 37.6722 21.1329C33.117 21.1345 28.5618 21.135 24.0067 21.1361H23.6239C23.5607 21.0076 23.4943 20.8993 23.4518 20.7822C23.2656 20.265 23.0854 19.7455 22.9052 19.2266C22.8948 19.1967 22.9041 19.1602 22.9041 19.1351C22.9585 19.0584 23.0315 19.0785 23.0958 19.0747C23.1644 19.0709 23.2335 19.0736 23.3021 19.0736C29.7162 19.0736 36.1302 19.0736 42.5442 19.0753C42.7266 19.0753 42.9123 19.0851 43.0898 19.1204C43.6403 19.231 43.9332 19.6344 43.8706 20.1909L43.8711 20.1898ZM26.9725 22.3552H26.0659C26.0311 22.3552 26.0028 22.3835 26.0028 22.4184V23.325C26.0028 23.3598 26.0311 23.3881 26.0659 23.3881H26.9725C27.0073 23.3881 27.0356 23.3598 27.0356 23.325V22.4184C27.0356 22.3835 27.0073 22.3552 26.9725 22.3552ZM28.3767 23.3881H29.2833C29.3181 23.3881 29.3464 23.3598 29.3464 23.325V22.4184C29.3464 22.3835 29.3181 22.3552 29.2833 22.3552H28.3767C28.3419 22.3552 28.3136 22.3835 28.3136 22.4184V23.325C28.3136 23.3598 28.3419 23.3881 28.3767 23.3881ZM30.6875 23.3881H31.5941C31.6289 23.3881 31.6572 23.3598 31.6572 23.325V22.4184C31.6572 22.3835 31.6289 22.3552 31.5941 22.3552H30.6875C30.6527 22.3552 30.6244 22.3835 30.6244 22.4184V23.325C30.6244 23.3598 30.6527 23.3881 30.6875 23.3881ZM32.9983 23.3881H33.9049C33.9397 23.3881 33.968 23.3598 33.968 23.325V22.4184C33.968 22.3835 33.9397 22.3552 33.9049 22.3552H32.9983C32.9635 22.3552 32.9351 22.3835 32.9351 22.4184V23.325C32.9351 23.3598 32.9635 23.3881 32.9983 23.3881ZM35.3091 23.3881H36.2157C36.2505 23.3881 36.2788 23.3598 36.2788 23.325V22.4184C36.2788 22.3835 36.2505 22.3552 36.2157 22.3552H35.3091C35.2743 22.3552 35.2459 22.3835 35.2459 22.4184V23.325C35.2459 23.3598 35.2743 23.3881 35.3091 23.3881ZM37.6199 23.3881H38.5265C38.5613 23.3881 38.5896 23.3598 38.5896 23.325V22.4184C38.5896 22.3835 38.5613 22.3552 38.5265 22.3552H37.6199C37.5851 22.3552 37.5567 22.3835 37.5567 22.4184V23.325C37.5567 23.3598 37.5851 23.3881 37.6199 23.3881ZM26.0659 25.2889H26.9725C27.0073 25.2889 27.0356 25.2606 27.0356 25.2258V24.3192C27.0356 24.2843 27.0073 24.256 26.9725 24.256H26.0659C26.0311 24.256 26.0028 24.2843 26.0028 24.3192V25.2258C26.0028 25.2606 26.0311 25.2889 26.0659 25.2889ZM28.3767 25.2889H29.2833C29.3181 25.2889 29.3464 25.2606 29.3464 25.2258V24.3192C29.3464 24.2843 29.3181 24.256 29.2833 24.256H28.3767C28.3419 24.256 28.3136 24.2843 28.3136 24.3192V25.2258C28.3136 25.2606 28.3419 25.2889 28.3767 25.2889ZM30.6875 25.2889H31.5941C31.6289 25.2889 31.6572 25.2606 31.6572 25.2258V24.3192C31.6572 24.2843 31.6289 24.256 31.5941 24.256H30.6875C30.6527 24.256 30.6244 24.2843 30.6244 24.3192V25.2258C30.6244 25.2606 30.6527 25.2889 30.6875 25.2889ZM32.9983 25.2889H33.9049C33.9397 25.2889 33.968 25.2606 33.968 25.2258V24.3192C33.968 24.2843 33.9397 24.256 33.9049 24.256H32.9983C32.9635 24.256 32.9351 24.2843 32.9351 24.3192V25.2258C32.9351 25.2606 32.9635 25.2889 32.9983 25.2889ZM35.3091 25.2889H36.2157C36.2505 25.2889 36.2788 25.2606 36.2788 25.2258V24.3192C36.2788 24.2843 36.2505 24.256 36.2157 24.256H35.3091C35.2743 24.256 35.2459 24.2843 35.2459 24.3192V25.2258C35.2459 25.2606 35.2743 25.2889 35.3091 25.2889ZM37.6199 25.2889H38.5265C38.5613 25.2889 38.5896 25.2606 38.5896 25.2258V24.3192C38.5896 24.2843 38.5613 24.256 38.5265 24.256H37.6199C37.5851 24.256 37.5567 24.2843 37.5567 24.3192V25.2258C37.5567 25.2606 37.5851 25.2889 37.6199 25.2889ZM26.0659 27.3106H26.9725C27.0073 27.3106 27.0356 27.2823 27.0356 27.2474V26.3409C27.0356 26.306 27.0073 26.2777 26.9725 26.2777H26.0659C26.0311 26.2777 26.0028 26.306 26.0028 26.3409V27.2474C26.0028 27.2823 26.0311 27.3106 26.0659 27.3106ZM28.3767 27.3106H29.2833C29.3181 27.3106 29.3464 27.2823 29.3464 27.2474V26.3409C29.3464 26.306 29.3181 26.2777 29.2833 26.2777H28.3767C28.3419 26.2777 28.3136 26.306 28.3136 26.3409V27.2474C28.3136 27.2823 28.3419 27.3106 28.3767 27.3106ZM30.6875 27.3106H31.5941C31.6289 27.3106 31.6572 27.2823 31.6572 27.2474V26.3409C31.6572 26.306 31.6289 26.2777 31.5941 26.2777H30.6875C30.6527 26.2777 30.6244 26.306 30.6244 26.3409V27.2474C30.6244 27.2823 30.6527 27.3106 30.6875 27.3106ZM32.9983 27.3106H33.9049C33.9397 27.3106 33.968 27.2823 33.968 27.2474V26.3409C33.968 26.306 33.9397 26.2777 33.9049 26.2777H32.9983C32.9635 26.2777 32.9351 26.306 32.9351 26.3409V27.2474C32.9351 27.2823 32.9635 27.3106 32.9983 27.3106ZM35.3091 27.3106H36.2157C36.2505 27.3106 36.2788 27.2823 36.2788 27.2474V26.3409C36.2788 26.306 36.2505 26.2777 36.2157 26.2777H35.3091C35.2743 26.2777 35.2459 26.306 35.2459 26.3409V27.2474C35.2459 27.2823 35.2743 27.3106 35.3091 27.3106ZM37.6199 27.3106H38.5265C38.5613 27.3106 38.5896 27.2823 38.5896 27.2474V26.3409C38.5896 26.306 38.5613 26.2777 38.5265 26.2777H37.6199C37.5851 26.2777 37.5567 26.306 37.5567 26.3409V27.2474C37.5567 27.2823 37.5851 27.3106 37.6199 27.3106ZM28.3767 29.3323H29.2833C29.3181 29.3323 29.3464 29.304 29.3464 29.2691V28.3625C29.3464 28.3277 29.3181 28.2994 29.2833 28.2994H28.3767C28.3419 28.2994 28.3136 28.3277 28.3136 28.3625V29.2691C28.3136 29.304 28.3419 29.3323 28.3767 29.3323ZM30.6875 29.3323H31.5941C31.6289 29.3323 31.6572 29.304 31.6572 29.2691V28.3625C31.6572 28.3277 31.6289 28.2994 31.5941 28.2994H30.6875C30.6527 28.2994 30.6244 28.3277 30.6244 28.3625V29.2691C30.6244 29.304 30.6527 29.3323 30.6875 29.3323ZM32.9983 29.3323H33.9049C33.9397 29.3323 33.968 29.304 33.968 29.2691V28.3625C33.968 28.3277 33.9397 28.2994 33.9049 28.2994H32.9983C32.9635 28.2994 32.9351 28.3277 32.9351 28.3625V29.2691C32.9351 29.304 32.9635 29.3323 32.9983 29.3323ZM35.3091 29.3323H36.2157C36.2505 29.3323 36.2788 29.304 36.2788 29.2691V28.3625C36.2788 28.3277 36.2505 28.2994 36.2157 28.2994H35.3091C35.2743 28.2994 35.2459 28.3277 35.2459 28.3625V29.2691C35.2459 29.304 35.2743 29.3323 35.3091 29.3323ZM37.6199 29.3323H38.5265C38.5613 29.3323 38.5896 29.304 38.5896 29.2691V28.3625C38.5896 28.3277 38.5613 28.2994 38.5265 28.2994H37.6199C37.5851 28.2994 37.5567 28.3277 37.5567 28.3625V29.2691C37.5567 29.304 37.5851 29.3323 37.6199 29.3323ZM26.1498 28.2994C26.1225 28.2994 26.1008 28.3212 26.1008 28.3484V28.6081C26.1008 28.6141 26.1019 28.6206 26.104 28.6261L26.3697 29.3007C26.3774 29.3197 26.3953 29.3317 26.4155 29.3317H27.0356C27.0629 29.3317 27.0847 29.3099 27.0847 29.2827V28.3484C27.0847 28.3212 27.0629 28.2994 27.0356 28.2994H26.1503H26.1498ZM40.3478 23.35L40.5759 22.6825L40.5792 22.6645V22.4113C40.5792 22.3803 40.5541 22.3552 40.5231 22.3552H39.6884C39.6574 22.3552 39.6323 22.3803 39.6323 22.4113V23.332C39.6323 23.3631 39.6574 23.3881 39.6884 23.3881H40.295C40.3189 23.3881 40.3401 23.3729 40.3483 23.35H40.3478ZM24.3813 23.3881H24.9938C25.0227 23.3881 25.0466 23.3647 25.0466 23.3353V22.4075C25.0466 22.3935 25.0411 22.3801 25.0312 22.3702C25.0213 22.3603 25.0078 22.3547 24.9938 22.3547H24.1521C24.138 22.3547 24.1246 22.3603 24.1147 22.3702C24.1048 22.3801 24.0992 22.3935 24.0992 22.4075V22.6645C24.0992 22.6705 24.1003 22.6759 24.102 22.6814L24.3312 23.3522C24.3383 23.3734 24.3584 23.3876 24.3807 23.3876L24.3813 23.3881ZM39.6323 25.2889H39.9078L40.1572 24.5746L40.1588 24.256H39.6323V25.2889ZM12.3008 18.974C12.6035 18.974 12.8507 18.7262 12.8507 18.4241V15.3526C12.8507 15.0499 12.603 14.8027 12.3008 14.8027C11.998 14.8027 11.7509 15.0504 11.7509 15.3526V18.4241C11.7509 18.7268 11.9986 18.974 12.3008 18.974ZM14.8887 12.2975C15.1915 12.2975 15.4387 12.0498 15.4387 11.7476V10.7512C15.4387 10.4484 15.1909 10.2012 14.8887 10.2012C14.586 10.2012 14.3388 10.449 14.3388 10.7512V11.7476C14.3388 12.0503 14.5865 12.2975 14.8887 12.2975ZM17.3335 13.9783C17.6362 13.9783 17.8834 13.7306 17.8834 13.4284V10.7425C17.8834 10.4397 17.6357 10.1925 17.3335 10.1925C17.0307 10.1925 16.7835 10.4403 16.7835 10.7425V13.4284C16.7835 13.7311 17.0313 13.9783 17.3335 13.9783ZM23.6032 13.472C23.9059 13.472 24.1531 13.2242 24.1531 12.922V10.7425C24.1531 10.4397 23.9054 10.1925 23.6032 10.1925C23.3005 10.1925 23.0533 10.4403 23.0533 10.7425V12.922C23.0533 13.2248 23.301 13.472 23.6032 13.472ZM28.8254 13.9958C29.1281 13.9958 29.3753 13.748 29.3753 13.4458V10.7419C29.3753 10.4392 29.1276 10.192 28.8254 10.192C28.5226 10.192 28.2754 10.4397 28.2754 10.7419V13.4458C28.2754 13.7486 28.5232 13.9958 28.8254 13.9958ZM39.1864 15.0276C39.4891 15.0276 39.7363 14.7798 39.7363 14.4776V10.7419C39.7363 10.4392 39.4886 10.192 39.1864 10.192C38.8837 10.192 38.6365 10.4397 38.6365 10.7419V14.4776C38.6365 14.7804 38.8842 15.0276 39.1864 15.0276ZM26.2995 12.5893C26.6022 12.5893 26.8494 12.3416 26.8494 12.0394V10.7419C26.8494 10.4392 26.6017 10.192 26.2995 10.192C25.9968 10.192 25.7496 10.4397 25.7496 10.7419V12.0394C25.7496 12.3421 25.9973 12.5893 26.2995 12.5893ZM31.2293 12.2861C31.532 12.2861 31.7792 12.0383 31.7792 11.7361V10.7419C31.7792 10.4392 31.5315 10.192 31.2293 10.192C30.9265 10.192 30.6793 10.4397 30.6793 10.7419V11.7361C30.6793 12.0389 30.9271 12.2861 31.2293 12.2861ZM23.6032 18.0151C23.9059 18.0151 24.1531 17.7674 24.1531 17.4652V15.3521C24.1531 15.0493 23.9054 14.8021 23.6032 14.8021C23.3005 14.8021 23.0533 15.0499 23.0533 15.3521V17.4652C23.0533 17.7679 23.301 18.0151 23.6032 18.0151ZM26.299 18.0151C26.6017 18.0151 26.8489 17.7674 26.8489 17.4652V14.5936C26.8489 14.2909 26.6011 14.0437 26.299 14.0437C25.9962 14.0437 25.749 14.2914 25.749 14.5936V17.4652C25.749 17.7679 25.9968 18.0151 26.299 18.0151ZM19.7597 24.5305C20.0624 24.5305 20.3096 24.2827 20.3096 23.9805V21.7601C20.3096 21.4574 20.0619 21.2102 19.7597 21.2102C19.457 21.2102 19.2098 21.4579 19.2098 21.7601V23.9805C19.2098 24.2833 19.4575 24.5305 19.7597 24.5305ZM22.1881 27.6672C21.8854 27.6672 21.6382 27.915 21.6382 28.2172V29.9465C21.6382 30.2492 21.8859 30.4964 22.1881 30.4964C22.4908 30.4964 22.738 30.2486 22.738 29.9465V28.2172C22.738 27.9144 22.4903 27.6672 22.1881 27.6672ZM22.1881 37.982C21.8854 37.982 21.6382 38.2297 21.6382 38.5319V39.8844C21.6382 40.1871 21.8859 40.4343 22.1881 40.4343C22.4908 40.4343 22.738 40.1866 22.738 39.8844V38.5319C22.738 38.2292 22.4903 37.982 22.1881 37.982ZM22.1881 31.605C21.8854 31.605 21.6382 31.8527 21.6382 32.1549V36.1204C21.6382 36.4231 21.8859 36.6703 22.1881 36.6703C22.4908 36.6703 22.738 36.4226 22.738 36.1204V32.1549C22.738 31.8521 22.4903 31.605 22.1881 31.605ZM14.8887 32.8562C14.586 32.8562 14.3388 33.1039 14.3388 33.4061V34.7499C14.3388 35.0526 14.5865 35.2998 14.8887 35.2998C15.1915 35.2998 15.4387 35.0521 15.4387 34.7499V33.4061C15.4387 33.1034 15.1909 32.8562 14.8887 32.8562ZM15.4387 21.1296C15.4387 20.8269 15.1909 20.5797 14.8887 20.5797C14.586 20.5797 14.3388 20.8274 14.3388 21.1296V31.3044C14.3388 31.6071 14.5865 31.8543 14.8887 31.8543C15.1915 31.8543 15.4387 31.6066 15.4387 31.3044V21.1296ZM12.3008 30.8737C12.6035 30.8737 12.8507 30.626 12.8507 30.3238V28.3506C12.8507 28.0478 12.603 27.8006 12.3008 27.8006C11.998 27.8006 11.7509 28.0484 11.7509 28.3506V30.3238C11.7509 30.6265 11.9986 30.8737 12.3008 30.8737ZM11.7509 36.7411C11.7509 37.0438 11.9986 37.291 12.3008 37.291C12.6035 37.291 12.8507 37.0433 12.8507 36.7411V33.1502C12.8507 32.8475 12.603 32.6003 12.3008 32.6003C11.998 32.6003 11.7509 32.848 11.7509 33.1502V36.7411ZM12.2834 12.4614C11.9665 12.4614 11.7095 12.7184 11.7095 13.0353C11.7095 13.3522 11.9665 13.6092 12.2834 13.6092C12.6003 13.6092 12.8572 13.3522 12.8572 13.0353C12.8572 12.7184 12.6003 12.4614 12.2834 12.4614ZM14.8936 14.9355C15.2105 14.9355 15.4675 14.6785 15.4675 14.3616C15.4675 14.0448 15.2105 13.7878 14.8936 13.7878C14.5767 13.7878 14.3197 14.0448 14.3197 14.3616C14.3197 14.6785 14.5767 14.9355 14.8936 14.9355ZM19.7553 10.9123C19.9437 10.9123 20.0962 10.7599 20.0962 10.5715C20.0962 10.3831 19.9437 10.2306 19.7553 10.2306C19.5669 10.2306 19.4145 10.3831 19.4145 10.5715C19.4145 10.7599 19.5669 10.9123 19.7553 10.9123ZM35.9015 10.9123C36.0899 10.9123 36.2424 10.7599 36.2424 10.5715C36.2424 10.3831 36.0899 10.2306 35.9015 10.2306C35.7131 10.2306 35.5607 10.3831 35.5607 10.5715C35.5607 10.7599 35.7131 10.9123 35.9015 10.9123ZM33.552 10.988C33.6068 10.988 33.6611 10.9772 33.7117 10.9563C33.7623 10.9353 33.8082 10.9046 33.847 10.8658C33.8857 10.8271 33.9164 10.7811 33.9374 10.7305C33.9583 10.6799 33.9691 10.6257 33.9691 10.5709C33.9691 10.5161 33.9583 10.4619 33.9374 10.4113C33.9164 10.3607 33.8857 10.3147 33.8469 10.276C33.8082 10.2372 33.7622 10.2065 33.7116 10.1855C33.661 10.1646 33.6068 10.1538 33.552 10.1538C33.4414 10.1538 33.3353 10.1978 33.2571 10.276C33.1789 10.3542 33.1349 10.4603 33.1349 10.5709C33.1349 10.6816 33.1789 10.7876 33.2571 10.8659C33.3353 10.9441 33.4414 10.988 33.552 10.988ZM19.7619 13.3407C20.0831 13.3407 20.3439 13.0805 20.3439 12.7587C20.3439 12.4369 20.0837 12.1766 19.7619 12.1766C19.4401 12.1766 19.1798 12.4369 19.1798 12.7587C19.1798 13.0805 19.4401 13.3407 19.7619 13.3407ZM31.2298 15.0423C31.5511 15.0423 31.8119 14.782 31.8119 14.4602C31.8119 14.1384 31.5516 13.8781 31.2298 13.8781C30.908 13.8781 30.6478 14.1384 30.6478 14.4602C30.6478 14.782 30.908 15.0423 31.2298 15.0423ZM33.5526 13.6217C33.8738 13.6217 34.1346 13.3614 34.1346 13.0396C34.1346 12.7178 33.8744 12.4576 33.5526 12.4576C33.2308 12.4576 32.9705 12.7178 32.9705 13.0396C32.9705 13.3614 33.2308 13.6217 33.5526 13.6217ZM35.9287 13.521C36.25 13.521 36.5108 13.2607 36.5108 12.9389C36.5108 12.6171 36.2505 12.3569 35.9287 12.3569C35.6069 12.3569 35.3467 12.6171 35.3467 12.9389C35.3467 13.2607 35.6069 13.521 35.9287 13.521ZM35.9287 15.7958C36.25 15.7958 36.5108 15.5356 36.5108 15.2138C36.5108 14.892 36.2505 14.6317 35.9287 14.6317C35.6069 14.6317 35.3467 14.892 35.3467 15.2138C35.3467 15.5356 35.6069 15.7958 35.9287 15.7958ZM35.9287 17.8605C36.25 17.8605 36.5108 17.6002 36.5108 17.2785C36.5108 16.9567 36.2505 16.6964 35.9287 16.6964C35.6069 16.6964 35.3467 16.9567 35.3467 17.2785C35.3467 17.6002 35.6069 17.8605 35.9287 17.8605ZM31.2189 34.6911C30.8977 34.6911 30.6369 34.9514 30.6369 35.2732C30.6369 35.5949 30.8971 35.8552 31.2189 35.8552C31.5407 35.8552 31.801 35.5949 31.801 35.2732C31.801 34.9514 31.5407 34.6911 31.2189 34.6911ZM33.5379 34.6911C33.2166 34.6911 32.9558 34.9514 32.9558 35.2732C32.9558 35.5949 33.2161 35.8552 33.5379 35.8552C33.8597 35.8552 34.1199 35.5949 34.1199 35.2732C34.1199 34.9514 33.8597 34.6911 33.5379 34.6911ZM33.5531 17.2333C33.8744 17.2333 34.1352 16.973 34.1352 16.6512C34.1352 16.3294 33.8749 16.0692 33.5531 16.0692C33.2313 16.0692 32.9711 16.3294 32.9711 16.6512C32.9711 16.973 33.2313 17.2333 33.5531 17.2333ZM39.1875 17.2333C39.5087 17.2333 39.7695 16.973 39.7695 16.6512C39.7695 16.3294 39.5093 16.0692 39.1875 16.0692C38.8657 16.0692 38.6054 16.3294 38.6054 16.6512C38.6054 16.973 38.8657 17.2333 39.1875 17.2333ZM31.2304 17.1581C31.5516 17.1581 31.8124 16.8979 31.8124 16.5761C31.8124 16.2543 31.5522 15.994 31.2304 15.994C30.9086 15.994 30.6483 16.2543 30.6483 16.5761C30.6483 16.8979 30.9086 17.1581 31.2304 17.1581ZM19.7624 25.5241C19.4412 25.5241 19.1804 25.7844 19.1804 26.1062C19.1804 26.428 19.4406 26.6882 19.7624 26.6882C20.0842 26.6882 20.3445 26.428 20.3445 26.1062C20.3445 25.7844 20.0842 25.5241 19.7624 25.5241ZM19.7624 29.7417C19.4412 29.7417 19.1804 30.002 19.1804 30.3238C19.1804 30.6456 19.4406 30.9058 19.7624 30.9058C20.0842 30.9058 20.3445 30.6456 20.3445 30.3238C20.3445 30.002 20.0842 29.7417 19.7624 29.7417ZM19.7624 31.808C19.4412 31.808 19.1804 32.0683 19.1804 32.3901C19.1804 32.7119 19.4406 32.9722 19.7624 32.9722C20.0842 32.9722 20.3445 32.7119 20.3445 32.3901C20.3445 32.0683 20.0842 31.808 19.7624 31.808ZM19.7624 34.8397C19.4412 34.8397 19.1804 35.1 19.1804 35.4218C19.1804 35.7436 19.4406 36.0038 19.7624 36.0038C20.0842 36.0038 20.3445 35.7436 20.3445 35.4218C20.3445 35.1 20.0842 34.8397 19.7624 34.8397ZM19.7624 36.8255C19.4412 36.8255 19.1804 37.0857 19.1804 37.4075C19.1804 37.7293 19.4406 37.9896 19.7624 37.9896C20.0842 37.9896 20.3445 37.7293 20.3445 37.4075C20.3445 37.0857 20.0842 36.8255 19.7624 36.8255ZM19.7624 15.3428C20.0837 15.3428 20.3445 15.0825 20.3445 14.7608C20.3445 14.439 20.0842 14.1787 19.7624 14.1787C19.4406 14.1787 19.1804 14.439 19.1804 14.7608C19.1804 15.0825 19.4406 15.3428 19.7624 15.3428ZM17.3732 20.4376C17.0563 20.4376 16.7993 20.6946 16.7993 21.0114C16.7993 21.3283 17.0563 21.5853 17.3732 21.5853C17.6901 21.5853 17.9471 21.3283 17.9471 21.0114C17.9471 20.6946 17.6901 20.4376 17.3732 20.4376ZM17.3732 22.4091C17.0563 22.4091 16.7993 22.6661 16.7993 22.983C16.7993 23.2999 17.0563 23.5569 17.3732 23.5569C17.6901 23.5569 17.9471 23.2999 17.9471 22.983C17.9471 22.6661 17.6901 22.4091 17.3732 22.4091ZM17.3732 25.2878C17.0563 25.2878 16.7993 25.5448 16.7993 25.8617C16.7993 26.1786 17.0563 26.4356 17.3732 26.4356C17.6901 26.4356 17.9471 26.1786 17.9471 25.8617C17.9471 25.5448 17.6901 25.2878 17.3732 25.2878ZM17.3732 27.3226C17.0563 27.3226 16.7993 27.5796 16.7993 27.8965C16.7993 28.2134 17.0563 28.4704 17.3732 28.4704C17.6901 28.4704 17.9471 28.2134 17.9471 27.8965C17.9471 27.5796 17.6901 27.3226 17.3732 27.3226ZM17.3732 31.1182C17.0563 31.1182 16.7993 31.3752 16.7993 31.6921C16.7993 32.009 17.0563 32.266 17.3732 32.266C17.6901 32.266 17.9471 32.009 17.9471 31.6921C17.9471 31.3752 17.6901 31.1182 17.3732 31.1182ZM17.3732 33.4355C17.0563 33.4355 16.7993 33.6925 16.7993 34.0094C16.7993 34.3263 17.0563 34.5833 17.3732 34.5833C17.6901 34.5833 17.9471 34.3263 17.9471 34.0094C17.9471 33.6925 17.6901 33.4355 17.3732 33.4355ZM14.8947 36.8761C14.5778 36.8761 14.3208 37.1331 14.3208 37.45C14.3208 37.7669 14.5778 38.0239 14.8947 38.0239C15.2116 38.0239 15.4686 37.7669 15.4686 37.45C15.4686 37.1331 15.2116 36.8761 14.8947 36.8761ZM12.2844 20.4778C11.9676 20.4778 11.7106 20.7348 11.7106 21.0517C11.7106 21.3686 11.9676 21.6256 12.2844 21.6256C12.6013 21.6256 12.8583 21.3686 12.8583 21.0517C12.8583 20.7348 12.6013 20.4778 12.2844 20.4778ZM12.2844 25.1762C11.9676 25.1762 11.7106 25.4332 11.7106 25.7501C11.7106 26.067 11.9676 26.324 12.2844 26.324C12.6013 26.324 12.8583 26.067 12.8583 25.7501C12.8583 25.4332 12.6013 25.1762 12.2844 25.1762ZM12.2844 38.7268C11.9676 38.7268 11.7106 38.9838 11.7106 39.3007C11.7106 39.6176 11.9676 39.8746 12.2844 39.8746C12.6013 39.8746 12.8583 39.6176 12.8583 39.3007C12.8583 38.9838 12.6013 38.7268 12.2844 38.7268ZM12.2844 24.2299C12.5093 24.2299 12.6923 24.0475 12.6923 23.8221C12.6923 23.5967 12.5099 23.4143 12.2844 23.4143C12.059 23.4143 11.8766 23.5967 11.8766 23.8221C11.8766 24.0475 12.059 24.2299 12.2844 24.2299Z" fill="#D2F801"/>
<path d="M26.8526 35.0706C25.5589 35.0706 24.5103 36.1192 24.5103 37.4129C24.5103 38.7066 25.5589 39.7553 26.8526 39.7553C28.1463 39.7553 29.195 38.7066 29.195 37.4129C29.195 36.1192 28.1463 35.0706 26.8526 35.0706ZM26.8526 37.9944C26.5314 37.9944 26.2706 37.7342 26.2706 37.4124C26.2706 37.0906 26.5308 36.8303 26.8526 36.8303C27.1744 36.8303 27.4347 37.0906 27.4347 37.4124C27.4347 37.7342 27.1744 37.9944 26.8526 37.9944ZM38.2493 35.0706C36.9556 35.0706 35.9069 36.1192 35.9069 37.4129C35.9069 38.7066 36.9556 39.7553 38.2493 39.7553C39.5429 39.7553 40.5916 38.7066 40.5916 37.4129C40.5916 36.1192 39.5429 35.0706 38.2493 35.0706ZM38.2493 37.9944C37.928 37.9944 37.6672 37.7342 37.6672 37.4124C37.6672 37.0906 37.9275 36.8303 38.2493 36.8303C38.571 36.8303 38.8313 37.0906 38.8313 37.4124C38.8313 37.7342 38.571 37.9944 38.2493 37.9944Z" fill="#D2F801"/>
</g>
<defs>
<linearGradient id="paint0_linear_23593_65338" x1="32.5632" y1="35.1142" x2="32.5387" y2="39.6007" gradientUnits="userSpaceOnUse">
<stop offset="0.59" stop-color="#FF8E3E"/>
<stop offset="0.69" stop-color="#FE8A39"/>
<stop offset="0.81" stop-color="#FE812C"/>
<stop offset="0.92" stop-color="#FC7216"/>
<stop offset="1" stop-color="#FC6605"/>
</linearGradient>
<clipPath id="clip0_23593_65338">
<rect width="60" height="60" rx="12" fill="white"/>
</clipPath>
</defs>
</svg>
