<svg width="128" height="40" viewBox="0 0 128 40" fill="none" xmlns="http://www.w3.org/2000/svg">
<g clip-path="url(#clip0_26_2367)">
<rect width="40" height="40" rx="20" fill="black"/>
<path d="M9.97491 28.5451V13.7126L13.3027 17.1113V21.6463V28.5451H9.97491Z" fill="#C8FC7C"/>
<path d="M19.9602 23.8371L25.2627 18.4829V23.3983L20.1308 28.5801L14.7667 23.1434V18.573L19.9602 23.8371Z" fill="#C8FC7C"/>
<path d="M30.0269 28.6668H26.699V17.1113L30.0269 13.7834V15.5819V28.6668Z" fill="#C8FC7C"/>
<path fill-rule="evenodd" clip-rule="evenodd" d="M19.8727 21.3366L9.97457 11.3804L14.4117 11.3333L19.8727 16.5074L25.4191 11.3333H30.0269L26.699 14.6102L19.8727 21.3366Z" fill="#C8FC7C"/>
<path d="M49.472 27V12.1093H52.864L57.6 23.1813L62.336 12.1093H65.7067V27H62.72V17.3147L58.7307 27H56.4693L52.4587 17.3147V27H49.472ZM79.0702 22.6907C79.0702 25.0373 77.1928 27.1493 73.8008 27.1493C70.7075 27.1493 68.3182 25.528 68.2755 22.712H71.4755C71.5608 23.9067 72.3502 24.696 73.7368 24.696C75.1448 24.696 75.9768 23.9493 75.9768 22.8827C75.9768 19.6613 68.2968 21.6027 68.3182 16.2053C68.3182 13.5173 70.4942 11.896 73.5662 11.896C76.6168 11.896 78.7075 13.4533 78.8995 16.1413H75.6142C75.5502 15.16 74.7608 14.392 73.4808 14.3707C72.3075 14.328 71.4328 14.904 71.4328 16.12C71.4328 19.1067 79.0702 17.4427 79.0702 22.6907ZM83.8142 27L80.3368 15.1813H83.3662L85.4568 24.184L87.7182 15.1813H90.8755L93.0942 24.1627L95.1848 15.1813H98.0435L94.5875 27H91.3662L89.2115 18.744L87.0568 27H83.8142ZM98.8915 21.048C98.8915 17.3573 101.281 14.9893 104.289 14.9893C106.188 14.9893 107.489 15.8853 108.193 16.8667V15.1813H111.201V27H108.193V25.272C107.489 26.296 106.145 27.192 104.268 27.192C101.281 27.192 98.8915 24.7387 98.8915 21.048ZM108.193 21.0907C108.193 18.8507 106.7 17.6133 105.057 17.6133C103.457 17.6133 101.942 18.808 101.942 21.048C101.942 23.288 103.457 24.568 105.057 24.568C106.7 24.568 108.193 23.3307 108.193 21.0907ZM117.105 16.888C117.809 15.8853 119.174 14.9893 121.009 14.9893C124.038 14.9893 126.406 17.3573 126.406 21.048C126.406 24.7387 124.038 27.192 121.009 27.192C119.153 27.192 117.83 26.2747 117.105 25.3147V32.632H114.118V15.1813H117.105V16.888ZM123.355 21.048C123.355 18.808 121.841 17.6133 120.219 17.6133C118.619 17.6133 117.105 18.8507 117.105 21.0907C117.105 23.3307 118.619 24.568 120.219 24.568C121.841 24.568 123.355 23.288 123.355 21.048Z" fill="black"/>
</g>
<defs>
<clipPath id="clip0_26_2367">
<rect width="128" height="40" fill="white"/>
</clipPath>
</defs>
</svg>
