<svg width="128" height="40" viewBox="0 0 128 40" fill="none" xmlns="http://www.w3.org/2000/svg">
<g clip-path="url(#clip0_26_2367)">
<g clip-path="url(#clip1_26_2367)">
<rect width="40" height="40" rx="20" fill="black"/>
<rect width="40" height="40" rx="20" fill="black"/>
<path d="M6.6665 23.2012C6.6665 22.1638 6.6665 21.1266 6.6665 20.0892C6.6665 19.8225 6.74114 19.748 7.00816 19.7478C7.66084 19.7473 8.31375 19.7444 8.96644 19.7487C9.53791 19.7523 10.0066 19.5403 10.3848 19.1149C11.8671 17.449 13.3546 15.7875 14.8331 14.1183C15.3016 13.59 15.8708 13.3171 16.5813 13.334C16.915 13.3419 17.2492 13.3347 17.5831 13.3356C18.183 13.3376 18.6185 13.7691 18.6188 14.3658C18.6199 16.0275 18.6192 17.6894 18.6192 19.3511C18.6192 19.6819 18.6855 19.7428 19.0192 19.7487C19.4067 19.7555 19.7946 19.753 20.1378 19.5464C20.3173 19.4385 20.4997 19.3159 20.6378 19.1619C22.141 17.4876 23.639 15.808 25.1313 14.124C25.5986 13.5968 26.1654 13.3173 26.877 13.3342C27.2057 13.3419 27.5347 13.3353 27.8636 13.3356C28.4911 13.3363 28.9247 13.7621 28.9254 14.3881C28.9276 16.055 28.926 17.7219 28.9263 19.3886C28.9263 19.6726 29.0009 19.7473 29.284 19.7476C30.5136 19.7476 31.7432 19.7476 32.9728 19.7476C33.2684 19.7476 33.3326 19.8099 33.3326 20.0977C33.3326 21.3971 33.334 22.6962 33.3324 23.9955C33.3306 25.4061 32.2013 26.5955 30.7861 26.6477C29.9878 26.6772 29.1876 26.6619 28.3884 26.6619C28.1642 26.6619 28.0812 26.5641 28.0812 26.3262C28.081 24.5787 28.0812 22.8314 28.0808 21.0839C28.0808 20.7626 27.9229 20.5333 27.6406 20.4536C27.3739 20.3781 27.1558 20.4624 26.9748 20.6667C26.3723 21.346 25.7674 22.0234 25.1635 22.7016C24.4221 23.5342 23.6869 24.3728 22.9375 25.1982C22.1068 26.1133 21.0671 26.6061 19.8254 26.6499C19.2544 26.67 18.6823 26.6623 18.1108 26.6623C17.8708 26.6623 17.7825 26.5682 17.7825 26.3295C17.7821 24.5821 17.7828 22.8348 17.7819 21.0873C17.7816 20.6509 17.499 20.3759 17.0931 20.4104C16.9089 20.4262 16.776 20.5272 16.658 20.6595C15.7721 21.654 14.8851 22.6474 13.9978 23.6408C13.5037 24.194 13.0214 24.7582 12.5114 25.2964C11.7122 26.1399 10.7183 26.6012 9.55401 26.6465C8.7001 26.6797 7.84438 26.6614 6.98933 26.6626C6.74704 26.663 6.66673 26.5752 6.66673 26.3286C6.66628 25.2862 6.66673 24.2438 6.66673 23.2014L6.6665 23.2012Z" fill="#C8FC7C"/>
</g>
<path d="M49.472 27V12.1093H52.864L57.6 23.1813L62.336 12.1093H65.7067V27H62.72V17.3147L58.7307 27H56.4693L52.4587 17.3147V27H49.472ZM79.0702 22.6907C79.0702 25.0373 77.1928 27.1493 73.8008 27.1493C70.7075 27.1493 68.3182 25.528 68.2755 22.712H71.4755C71.5608 23.9067 72.3502 24.696 73.7368 24.696C75.1448 24.696 75.9768 23.9493 75.9768 22.8827C75.9768 19.6613 68.2968 21.6027 68.3182 16.2053C68.3182 13.5173 70.4942 11.896 73.5662 11.896C76.6168 11.896 78.7075 13.4533 78.8995 16.1413H75.6142C75.5502 15.16 74.7608 14.392 73.4808 14.3707C72.3075 14.328 71.4328 14.904 71.4328 16.12C71.4328 19.1067 79.0702 17.4427 79.0702 22.6907ZM83.8142 27L80.3368 15.1813H83.3662L85.4568 24.184L87.7182 15.1813H90.8755L93.0942 24.1627L95.1848 15.1813H98.0435L94.5875 27H91.3662L89.2115 18.744L87.0568 27H83.8142ZM98.8915 21.048C98.8915 17.3573 101.281 14.9893 104.289 14.9893C106.188 14.9893 107.489 15.8853 108.193 16.8667V15.1813H111.201V27H108.193V25.272C107.489 26.296 106.145 27.192 104.268 27.192C101.281 27.192 98.8915 24.7387 98.8915 21.048ZM108.193 21.0907C108.193 18.8507 106.7 17.6133 105.057 17.6133C103.457 17.6133 101.942 18.808 101.942 21.048C101.942 23.288 103.457 24.568 105.057 24.568C106.7 24.568 108.193 23.3307 108.193 21.0907ZM117.105 16.888C117.809 15.8853 119.174 14.9893 121.009 14.9893C124.038 14.9893 126.406 17.3573 126.406 21.048C126.406 24.7387 124.038 27.192 121.009 27.192C119.153 27.192 117.83 26.2747 117.105 25.3147V32.632H114.118V15.1813H117.105V16.888ZM123.355 21.048C123.355 18.808 121.841 17.6133 120.219 17.6133C118.619 17.6133 117.105 18.8507 117.105 21.0907C117.105 23.3307 118.619 24.568 120.219 24.568C121.841 24.568 123.355 23.288 123.355 21.048Z" fill="black"/>
</g>
<defs>
<clipPath id="clip0_26_2367">
<rect width="128" height="40" fill="white"/>
</clipPath>
<clipPath id="clip1_26_2367">
<rect width="40" height="40" rx="20" fill="white"/>
</clipPath>
</defs>
</svg>
