<svg width="32" height="32" viewBox="0 0 32 32" fill="none" xmlns="http://www.w3.org/2000/svg">
<rect width="32" height="32" rx="16" fill="black"/>
<path d="M19.2942 22.4073C19.2942 23.2928 19.2911 24.1783 19.2955 25.0638C19.2976 25.4948 19.4269 25.633 19.8455 25.6341C21.5935 25.6386 23.3416 25.6386 25.0896 25.6341C25.5146 25.633 25.6832 25.4675 25.6842 25.0518C25.6885 23.3153 25.6886 21.5787 25.6843 19.8422C25.6833 19.4 25.5196 19.2448 25.0741 19.2443C23.3376 19.2423 21.601 19.2423 19.8645 19.2443C19.4101 19.2448 19.2976 19.3568 19.2952 19.8196C19.2905 20.6822 19.2938 21.5447 19.2942 22.4073ZM12.6556 22.4242C12.6556 21.5503 12.6583 20.6765 12.6546 19.8026C12.6525 19.3271 12.5669 19.2445 12.0829 19.244C10.3697 19.2424 8.65638 19.2424 6.94314 19.2441C6.42514 19.2447 6.31525 19.3523 6.3145 19.8727C6.31179 21.5859 6.31204 23.2992 6.31462 25.0125C6.31538 25.5048 6.43653 25.633 6.92244 25.6343C8.6472 25.6388 10.372 25.6385 12.0967 25.6342C12.5353 25.633 12.6526 25.5121 12.6545 25.0803C12.6585 24.195 12.6557 23.3097 12.6556 22.4242ZM15.9764 19.0944C16.8734 19.0944 17.7704 19.0981 18.6673 19.0927C19.0566 19.0903 19.1441 19.0066 19.1449 18.6287C19.1486 16.8348 19.1488 15.0408 19.1441 13.2468C19.1432 12.8838 19.0237 12.7614 18.6696 12.7605C16.8872 12.756 15.1047 12.7558 13.3222 12.7606C12.926 12.7617 12.8077 12.8859 12.8071 13.2816C12.8041 15.0525 12.8044 16.8235 12.807 18.5945C12.8076 19.0145 12.8873 19.0916 13.32 19.0935C14.2054 19.0975 15.0909 19.0947 15.9764 19.0944ZM22.4747 12.6045C23.3598 12.6045 24.2449 12.6074 25.1299 12.6033C25.5607 12.6013 25.6838 12.4804 25.6847 12.0455C25.6885 10.3214 25.6883 8.59729 25.6849 6.87316C25.684 6.43558 25.5643 6.315 25.1319 6.31418C23.3503 6.31097 21.5687 6.31097 19.7871 6.31444C19.3808 6.31525 19.2959 6.39996 19.2952 6.79909C19.2922 8.5577 19.2921 10.3163 19.2952 12.0749C19.2961 12.519 19.3803 12.6019 19.8197 12.6038C20.7046 12.6075 21.5897 12.6048 22.4747 12.6045ZM9.50353 12.6048C10.3886 12.6048 11.2738 12.6078 12.1589 12.6035C12.5708 12.6014 12.6533 12.5237 12.6541 12.122C12.6578 10.3517 12.6576 8.58143 12.6544 6.81117C12.6536 6.39184 12.5726 6.31462 12.1395 6.31393C10.3808 6.31116 8.62202 6.31085 6.86322 6.31418C6.42621 6.315 6.31519 6.42948 6.3145 6.87278C6.31173 8.60855 6.31198 10.3443 6.31437 12.0801C6.31494 12.5098 6.40588 12.6007 6.84811 12.6032C7.73327 12.6083 8.61844 12.6047 9.50353 12.6048Z" fill="white"/>
</svg>
