<svg width="48" height="48" viewBox="0 0 48 48" fill="none" xmlns="http://www.w3.org/2000/svg">
    <circle cx="24" cy="24" r="24" fill="url(#paint0_linear_2075_78365)"/>
    <g clip-path="url(#clip0_2075_78365)">
        <path d="M34.5669 29.8671C34.5669 34.4743 31.702 38.4139 27.6567 40C28.9468 38.885 30.257 35.7216 29.7644 35.3991C28.7842 34.7565 25.8488 38.6608 27.3191 30.5802C26.4775 31.8362 24.2539 34.274 22.9121 34.9871C25.1156 30.5802 23.2258 23.8841 22.1776 22.4995C24.8246 28.3843 17.612 29.7991 17.612 35.3991C17.612 37.2372 18.4271 38.885 19.7172 40C15.6705 38.4126 12.8057 34.4743 12.8057 29.8671C12.8057 25.2598 15.7197 23.5061 15.7197 19.2617C16.4239 19.5528 17.0501 20.548 17.0501 22.6469C17.0501 23.6321 17.8954 24.1348 18.5329 24.1348C19.6403 24.1348 20.3282 22.9808 19.886 22.0246C16.5638 14.8409 21.8602 9.6063 25.2743 8C21.7468 19.0854 34.5669 19.6132 34.5669 29.8671Z" fill="white"/>
        <path d="M25.2741 8C25.2741 8 23.785 11.7518 25.3535 14.8901C26.0615 16.3049 27.4789 18.0246 28.9403 19.486C31.9664 22.5121 35.7711 26.5461 34.2089 32.3767C32.527 38.6545 27.6426 40.0189 27.7069 39.9987C28.5875 39.7279 37.5714 30.4706 28.3796 23.4079C17.9343 15.3839 25.2741 8 25.2741 8Z" fill="url(#paint1_linear_2075_78365)"/>
    </g>
    <defs>
        <linearGradient id="paint0_linear_2075_78365" x1="24" y1="0" x2="24" y2="48" gradientUnits="userSpaceOnUse">
            <stop stop-color="#FF1F70"/>
            <stop offset="1" stop-color="#FF841F"/>
        </linearGradient>
        <linearGradient id="paint1_linear_2075_78365" x1="22.7683" y1="24" x2="34.573" y2="24" gradientUnits="userSpaceOnUse">
            <stop stop-color="#CCCCE6"/>
            <stop offset="1" stop-color="#E6E6E6" stop-opacity="0.1"/>
        </linearGradient>
        <clipPath id="clip0_2075_78365">
            <rect width="21.7676" height="32" fill="white" transform="translate(12.8057 8)"/>
        </clipPath>
    </defs>
</svg>
